<svg xmlns="http://www.w3.org/2000/svg" viewBox="0 0 448 512"><!--!Font Awesome Free 6.7.2 by @fontawesome - https://fontawesome.com License - https://fontawesome.com/license/free Copyright 2025 Fonticons, Inc.--><path d="M400 32H48C21.5 32 0 53.5 0 80v352c0 26.5 21.5 48 48 48h352c26.5 0 48-21.5 48-48V80c0-26.5-21.5-48-48-48zM178.1 262.1C87.4 196.3 88.4 196.1 64 177.2V152c0-13.3 10.7-24 24-24h272c13.3 0 24 10.7 24 24v25.2c-24.4 19-23.4 19.1-114.1 84.9-10.5 7.7-31.4 26.1-45.9 25.9-14.5 .2-35.4-18.2-45.9-25.9zM384 217.8V360c0 13.3-10.7 24-24 24H88c-13.3 0-24-10.7-24-24V217.8c14 10.8 33.3 25.2 95.3 70.2 14.2 10.3 38 32.1 64.7 32 26.9 .1 51-22 64.7-32 62-45 81.3-59.4 95.3-70.2z"/></svg>