<svg xmlns="http://www.w3.org/2000/svg" width="154.95" height="35.5" viewBox="0 0 154.95 35.5"><title>txt_movie</title><path d="M117.25,9.4a3.17,3.17,0,0,0,3.1-3.05A1.71,1.71,0,0,0,118.5,4.6a3.26,3.26,0,0,0-3.2,3A1.8,1.8,0,0,0,117.25,9.4Zm35,12c-5.05,6.35-11.5,10.15-18.35,10.15-2.6,0-5.55-.8-5.55-4a5.07,5.07,0,0,1,.1-1.2,6.52,6.52,0,0,0,1.15.1c7.45,0,13.05-4.7,13.05-9.1,0-2.65-2.4-4.7-5.6-4.7-4.91,0-10.08,4.4-12,10.15-4.1,5.31-7.94,8.75-10.79,8.75a2.37,2.37,0,0,1-2.55-2.65,7.2,7.2,0,0,1,.75-3.15l5-12.65H113.3l-3.45,8.65-.08.2c-2.08,2.55-4.3,3.9-6.92,3.9a5.72,5.72,0,0,1-5-2.75c1.75-2.7,3.1-5.6,3.1-8S99.85,11,97.3,11s-5,2.3-5,6a15.63,15.63,0,0,0,1.2,5.7A38.65,38.65,0,0,1,86,30.45,100.65,100.65,0,0,0,84.3,13.1H80.4c.58,3,1,5.84,1.29,8.64-2.51,3.24-5,4.41-8.14,4.41a4.66,4.66,0,0,1-3.6-1.4,14.44,14.44,0,0,0,.9-4.65c0-4.35-2.3-7.35-6.5-7.35-4.82,0-9.06,4.27-11.09,9.37C49,27.81,44.78,31.55,41.8,31.55A2.57,2.57,0,0,1,39,28.75a8.15,8.15,0,0,1,.7-3L50,0H45.7L25.5,27.1,30.6,0H26.55L12.1,24.9c-2.9,5.2-4.55,6.65-6.25,6.65-1.4,0-2-1.05-2-2.45a6.15,6.15,0,0,1,.2-1.65H.3a7.77,7.77,0,0,0-.3,2.1c0,3.8,2.1,5.95,5.5,5.95s6.1-2.25,10-9l9.15-16-4.2,24L24,35,40.65,13,35.5,26.6a8.76,8.76,0,0,0-.6,2.7c0,4.15,2.5,6.1,5.8,6.1,4.13,0,7.82-2.4,11.35-6.09.32,3.46,2.53,6.09,6.4,6.09s7.4-3.1,9.7-6.95A7.41,7.41,0,0,0,72.9,30a13.38,13.38,0,0,0,9.18-3.28c.08,1.51.12,3,.12,4.43,0,1.05,0,2.1,0,3.15l3.65.7a39.18,39.18,0,0,0,9.75-8.6,8.48,8.48,0,0,0,6.7,3.35,12,12,0,0,0,5.5-1.24,11.61,11.61,0,0,0-.1,1.44,5.22,5.22,0,0,0,5.55,5.45c4.21,0,7.84-2.45,11.34-6.2.76,3.74,3.92,6.2,9.11,6.2,9,0,16.2-4.75,21.3-11.45Zm-15.4-4.95c1.25,0,2,.65,2,1.7,0,2.25-3.35,4.75-8.7,4.75h-1C130.85,19.35,134.15,16.45,136.85,16.45ZM59,31.55c-2.15,0-3-1.8-3-4,0-4.55,3.9-11,7.85-11,2,0,3,1.6,3,4.05C66.85,25.25,62.7,31.55,59,31.55ZM96,19.4a8.45,8.45,0,0,1-.45-2.7c0-1.35.45-2,1.15-2a.78.78,0,0,1,.8.85A7.4,7.4,0,0,1,96,19.4Z"/></svg>