<svg xmlns="http://www.w3.org/2000/svg" width="51.46" height="22.77" viewBox="0 0 51.46 22.77"><title>txt_about</title><path d="M16.26,14c-1.44,0-2.58,1.74-3.39,2.91l.39-1.56C18.66,10.92,21.78,0,18.81,0c-1.32,0-2.37,1.74-2.88,2.79C13.8,7.23,12.63,12.21,11.4,17c-.09.32-.16.65-.24,1C10.25,19,8.7,20.55,7.5,20.55c-.81,0-.84-.72-.84-1.32,0-.84.18-1.53.18-2.22,0-.3-.18-.6-.69-.6-.87,0-2,2-2.94,3-.48.51-1.53,1.47-1.86,1.47-.12,0-.15-.06-.15-.18a7.75,7.75,0,0,1,1.17-3.06c.6-1.05,1.92-3,2.79-3s.42,1.71,1.35,1.71c.27,0,.42-.12.42-.36A2.11,2.11,0,0,0,5,13.83c-2.82,0-5,5.49-5,6.75a1.17,1.17,0,0,0,1.29,1.26c1.53,0,2.91-1.62,3.9-2.82a2.19,2.19,0,0,0,2.25,2.43A4.87,4.87,0,0,0,10.7,20c0,.23-.1.46-.14.69a.38.38,0,0,0,0,.18.68.68,0,0,0,.75.6c.6,0,.78-.54,1.05-1a2.35,2.35,0,0,0,2,1.05c2.13,0,3.72-2.88,3.72-4.95C18.06,15.45,17.52,14,16.26,14Zm2.52-12.9c1,0-.39,6.75-5,12.18C14.4,11.22,17.52,1.14,18.78,1.14ZM14.22,20.52c-.42,0-1.05-.87-1.2-1.17.6-1.44,2-4.2,3.21-4.2C17.22,15.15,15.93,20.52,14.22,20.52ZM51.27,5.31c-.63,0-3.06,0-3.39,0,.51-1.26,1-3.69-.39-3.69s-2.76,2.64-3.27,3.72c-.57,0-2.58,0-4,0-.87,0-.78.93,0,.93h3.66a28,28,0,0,0-2.38,10.33c-1.11,1.49-3.15,3.47-5.48,3.5-.75,0-.93-.69-.93-1.29,0-1.56,1.2-3.39,1.2-3.66s-.48-.48-.72-.48c-.63,0-3.15,5-4.41,5-.33,0-.42-.27-.42-.54,0-1.86,1.86-4.8,1.86-5.16s-.48-.63-.72-.48A7.64,7.64,0,0,0,30,16.69c-.77.6-2.8,1.87-4.57,1.58a7.18,7.18,0,0,0,.75-2.85,2,2,0,0,0-1.95-2.25c-1.47,0-2.88,1.83-3.54,3a6.18,6.18,0,0,0-1,3.12,1.91,1.91,0,0,0,2,2.13,4.05,4.05,0,0,0,3.27-2.22,7.29,7.29,0,0,0,4.63-1.1,5.3,5.3,0,0,0-.13.86,1.55,1.55,0,0,0,1.65,1.71c1.11,0,1.92-.9,2.64-1.65a2,2,0,0,0,2.22,2.07,8.45,8.45,0,0,0,5.51-2.94c.09,2,.57,4.65,2.74,4.65a.69.69,0,0,0,.12-1.2c-1.89,0-1.5-5.49-1.29-6.51a42,42,0,0,0,4.47-8.73h3.33C51.3,6.33,51.72,5.34,51.27,5.31ZM21.3,20.4c-1-.66.3-3.39.6-4a2.86,2.86,0,0,0,1.74,2.4C23.31,19.35,22,20.88,21.3,20.4Zm2.82-2.52a2.15,2.15,0,0,1-.9-1.89c0-.6.33-1.83,1.05-1.83.51,0,.51,1,.51,1.23A8.55,8.55,0,0,1,24.12,17.88Zm19.26-5.13A32.35,32.35,0,0,1,45.24,6.3h1.08A56.74,56.74,0,0,1,43.38,12.75Zm3.33-7.44H45.66c.42-1,1.17-2.76,1.74-2.76C47.79,2.55,47.16,4.23,46.71,5.31Z"/></svg>